<?xml version="1.0" standalone="no"?>
<!DOCTYPE svg PUBLIC "-//W3C//DTD SVG 20010904//EN"
 "http://www.w3.org/TR/2001/REC-SVG-20010904/DTD/svg10.dtd">
<svg version="1.0" xmlns="http://www.w3.org/2000/svg"
 width="435.000000pt" height="553.000000pt" viewBox="0 0 435.000000 553.000000"
 preserveAspectRatio="xMidYMid meet">

<g transform="translate(0.000000,553.000000) scale(0.100000,-0.100000)"
fill="#000000" stroke="none">
<path d="M2643 4107 c3 -19 1 -40 -5 -48 -7 -10 -8 -8 -4 10 3 18 2 21 -6 13
-6 -6 -12 -26 -14 -44 -1 -18 -11 -70 -23 -116 -15 -61 -21 -114 -21 -198 0
-69 -4 -114 -10 -114 -6 0 -10 45 -11 113 0 61 -4 121 -9 132 -7 17 -9 16 -10
-10 0 -25 -2 -27 -11 -12 -5 9 -17 17 -25 17 -17 0 -38 -46 -94 -208 -22 -64
-47 -130 -55 -147 -7 -16 -16 -46 -18 -65 -3 -19 -19 -84 -36 -145 -26 -90
-31 -122 -26 -175 3 -47 2 -61 -6 -50 -7 11 -8 -11 -2 -75 4 -49 7 -112 5
-140 -1 -33 7 -79 24 -132 l27 -81 -54 -62 c-30 -34 -72 -90 -94 -124 -40 -60
-75 -84 -75 -51 0 14 -6 12 -31 -9 -18 -15 -43 -26 -60 -26 -57 0 -174 -23
-191 -37 -12 -11 -21 -12 -36 -4 -12 6 -40 8 -68 4 l-47 -6 7 27 c4 16 2 34
-4 41 -9 10 -7 20 4 37 20 31 45 130 63 253 12 84 13 137 3 335 -8 169 -8 250
0 290 13 67 57 158 86 177 13 8 20 21 17 32 -3 11 4 21 19 28 14 6 44 49 77
109 30 55 58 101 63 102 4 2 8 12 8 23 0 11 7 22 15 25 14 6 23 22 54 97 6 15
11 58 11 94 l0 66 -62 -59 c-35 -33 -77 -70 -94 -82 l-32 -22 -51 70 c-28 39
-55 70 -61 70 -5 0 -10 6 -10 13 0 6 -18 20 -40 31 l-39 19 -65 -52 c-36 -29
-74 -63 -85 -77 -10 -13 -23 -24 -28 -24 -5 0 -38 -29 -72 -65 -35 -36 -70
-65 -78 -65 -29 0 -99 -40 -135 -77 -41 -43 -78 -108 -78 -138 0 -11 -16 -31
-36 -45 -99 -69 -99 -69 -102 -173 l-4 -95 38 -41 c22 -25 43 -40 51 -37 8 3
11 2 8 -4 -6 -10 25 -30 48 -30 9 0 57 -20 109 -45 51 -25 99 -45 106 -45 15
0 15 -3 -23 -165 -12 -55 -28 -140 -35 -190 -7 -49 -39 -207 -71 -350 -32
-143 -64 -285 -70 -315 -6 -30 -17 -80 -25 -110 -43 -180 -56 -235 -75 -325
-12 -55 -23 -110 -26 -122 -8 -34 11 -40 217 -79 41 -7 92 -14 113 -14 57 0
77 -15 77 -55 0 -18 4 -36 9 -39 5 -4 21 -37 36 -75 24 -60 32 -71 66 -86 21
-10 40 -24 44 -33 11 -29 33 -158 39 -227 9 -105 26 -219 46 -325 11 -52 22
-117 26 -145 3 -27 17 -102 31 -165 13 -63 29 -140 34 -170 6 -30 12 -63 15
-72 5 -17 32 -18 393 -18 l388 0 7 103 c19 291 54 748 65 827 l7 55 7 -66 c4
-37 5 -73 2 -80 -6 -18 -41 -375 -55 -564 -6 -82 -12 -162 -14 -177 -4 -39 11
-35 17 5 6 36 46 218 92 422 9 39 18 89 22 113 3 23 10 45 14 48 5 3 9 16 9
29 0 14 5 44 10 67 40 170 39 159 16 168 -30 11 -41 27 -54 80 -33 126 -53
266 -58 384 -5 142 -4 140 -28 270 -18 101 -20 152 -6 161 5 3 26 3 46 -1 26
-5 42 -16 61 -45 14 -21 22 -42 19 -47 -3 -5 0 -17 7 -27 18 -23 9 -73 -14
-86 -13 -7 -19 -6 -19 1 0 6 -4 9 -9 6 -5 -4 -12 0 -14 6 -3 7 -6 4 -6 -7 -1
-17 -3 -18 -12 -5 -9 13 -10 12 -5 -2 3 -10 9 -25 12 -33 4 -11 2 -13 -9 -9
-12 4 -14 1 -10 -15 3 -11 10 -19 15 -18 6 1 13 -4 15 -11 3 -8 -1 -10 -12 -5
-14 5 -16 2 -10 -18 4 -13 13 -31 20 -39 15 -18 9 -41 -10 -34 -10 4 -12 0 -8
-16 5 -20 7 -20 24 -4 10 9 25 14 32 11 16 -6 30 -47 16 -47 -6 0 -6 -7 -1
-17 11 -21 9 -110 -3 -137 -5 -11 -4 -21 3 -25 5 -3 13 -37 16 -76 4 -38 9
-78 13 -89 3 -12 1 -16 -6 -12 -8 5 -11 -2 -9 -23 1 -16 6 -27 11 -24 4 3 6
11 3 19 -3 8 -1 14 5 14 6 0 9 -8 8 -18 -5 -55 -1 -60 54 -64 67 -6 167 10
190 30 13 12 17 32 17 97 0 102 -10 206 -20 200 -4 -3 -8 -47 -9 -99 -1 -52
-7 -114 -14 -137 -15 -51 -40 -59 -57 -18 -19 44 5 411 32 503 25 84 20 201
-11 292 -25 70 -25 65 -5 57 13 -5 14 0 8 31 -5 31 -3 40 15 52 11 8 21 24 21
35 0 10 4 27 10 37 5 9 23 51 40 93 47 117 88 145 118 81 18 -39 15 -46 -14
-23 -36 28 -43 27 -60 -14 -19 -47 -19 -89 1 -81 44 17 136 90 149 119 40 87
48 118 53 198 7 112 -12 178 -75 261 -79 106 -124 170 -113 164 26 -17 167
-219 204 -294 23 -45 46 -81 52 -79 13 5 19 77 7 89 -7 7 -13 -2 -17 -24 -6
-26 -9 -29 -14 -15 -4 11 4 41 21 75 49 101 35 168 -78 364 -68 119 -87 180
-36 121 15 -17 51 -78 81 -135 30 -56 56 -105 59 -108 7 -7 -7 99 -18 135 -5
17 -14 50 -20 75 -7 25 -16 53 -21 62 -5 10 -9 31 -9 47 0 16 -12 69 -26 117
-38 129 -39 141 -2 39 29 -82 33 -87 39 -60 4 17 7 103 8 191 1 137 -3 177
-23 269 -22 97 -45 145 -68 145 -5 0 -73 32 -152 70 -79 39 -153 70 -163 70
-10 0 -24 5 -30 11 -6 6 -35 14 -64 19 -69 11 -129 32 -129 45 0 11 -75 85
-86 85 -4 0 -4 -15 -1 -33z m-1152 -250 c-10 -9 -11 -8 -5 6 3 10 9 15 12 12
3 -3 0 -11 -7 -18z m1381 -89 c-13 -42 -17 -88 -16 -218 l1 -165 -14 105 c-17
126 -11 271 12 306 26 41 35 27 17 -28z m407 -150 c-1 -133 -16 -241 -18 -130
-1 34 -5 52 -13 52 -9 0 -12 16 -10 55 2 30 8 55 13 55 5 0 9 23 9 50 0 28 5
50 10 50 6 0 10 -50 9 -132z m-401 -270 c1 -18 9 -103 17 -188 8 -85 15 -165
15 -178 0 -21 -2 -22 -15 -8 -11 11 -18 51 -25 137 -5 68 -7 126 -4 131 3 4 0
8 -5 8 -12 0 -16 112 -4 123 13 14 19 6 21 -25z m-41 -250 c-3 -8 -6 -5 -6 6
-1 11 2 17 5 13 3 -3 4 -12 1 -19z m-530 -80 c-3 -8 -6 -5 -6 6 -1 11 2 17 5
13 3 -3 4 -12 1 -19z m-27 -3 c0 -8 6 -15 13 -16 8 0 8 -2 1 -5 -6 -3 -10 -15
-9 -27 1 -12 0 -14 -2 -4 -2 9 -9 17 -14 17 -5 0 -9 11 -9 25 0 14 5 25 10 25
6 0 10 -7 10 -15z m-563 -117 c-3 -7 -5 -2 -5 12 0 14 2 19 5 13 2 -7 2 -19 0
-25z m862 -293 c-8 -7 -105 67 -129 98 -11 14 -20 33 -20 43 0 13 24 -6 77
-59 42 -42 74 -79 72 -82z m-294 -85 c-16 -31 -16 -31 5 -20 12 6 24 18 27 26
3 8 10 14 15 14 12 0 0 -82 -14 -91 -15 -10 -119 -31 -124 -26 -11 11 31 90
64 118 40 36 52 27 27 -21z m730 -75 c8 -30 20 -55 25 -55 6 0 10 -9 10 -20 0
-11 5 -20 10 -20 6 0 10 -6 10 -13 0 -8 9 -22 20 -32 24 -22 26 -35 4 -35 -10
0 -14 6 -11 14 4 10 1 13 -7 10 -7 -3 -16 3 -20 13 -3 10 -17 38 -31 62 -28
49 -44 100 -38 119 7 20 11 15 28 -43z m137 -159 c4 -23 -17 -33 -25 -11 -8
19 3 49 13 38 5 -4 10 -17 12 -27z m-165 -8 c12 -25 18 -65 21 -158 l4 -125
-26 25 c-23 23 -25 28 -15 60 8 24 8 67 2 133 -5 53 -8 97 -6 97 1 0 10 -15
20 -32z m-546 -93 c36 -109 36 -110 15 -113 -12 -2 -63 9 -112 23 -49 15 -112
29 -140 32 -49 5 -54 3 -104 -36 -57 -45 -87 -56 -126 -47 l-25 7 45 50 c25
27 71 63 103 80 210 111 228 118 267 116 l40 -2 37 -110z m366 -425 c1 -11 -3
-23 -9 -26 -6 -4 -8 -2 -4 4 3 6 1 14 -5 18 -9 5 -2 16 16 24 1 0 1 -9 2 -20z
m13 -50 c0 -5 -4 -10 -10 -10 -5 0 -10 5 -10 10 0 6 5 10 10 10 6 0 10 -4 10
-10z m-7 -37 c-3 -7 -6 -13 -8 -13 -2 0 -5 6 -8 13 -3 8 1 14 8 14 7 0 11 -6
8 -14z"/>
<path d="M2707 1385 c-4 -8 -2 -15 4 -15 6 0 7 -4 4 -10 -3 -5 -1 -10 4 -10 6
0 10 9 8 20 -4 27 -13 34 -20 15z"/>
<path d="M3032 1370 c0 -14 2 -19 5 -12 2 6 2 18 0 25 -3 6 -5 1 -5 -13z"/>
<path d="M2710 1332 c0 -11 41 -44 47 -38 11 11 -10 46 -28 46 -10 0 -19 -3
-19 -8z"/>
</g>
</svg>
